<?xml version="1.0" encoding="utf-8"?>
<svg version="1.1" xmlns:xlink="http://www.w3.org/1999/xlink" width="20px" height="20px" xmlns="http://www.w3.org/2000/svg">
  <g transform="matrix(1 0 0 1 -310 -286 )">
    <path d="M 11.5494791666667 5.1171875  C 11.6276041666667 5.1953125  11.6666666666667 5.29513888888889  11.6666666666667 5.41666666666667  L 11.6666666666667 11.25  C 11.6666666666667 11.3715277777778  11.6276041666667 11.4713541666667  11.5494791666667 11.5494791666667  C 11.4713541666667 11.6276041666667  11.3715277777778 11.6666666666667  11.25 11.6666666666667  L 7.08333333333333 11.6666666666667  C 6.96180555555556 11.6666666666667  6.86197916666667 11.6276041666667  6.78385416666667 11.5494791666667  C 6.70572916666667 11.4713541666667  6.66666666666667 11.3715277777778  6.66666666666667 11.25  L 6.66666666666667 10.4166666666667  C 6.66666666666667 10.2951388888889  6.70572916666667 10.1953125  6.78385416666667 10.1171875  C 6.86197916666667 10.0390625  6.96180555555556 10  7.08333333333333 10  L 10 10  L 10 5.41666666666667  C 10 5.29513888888889  10.0390625 5.1953125  10.1171875 5.1171875  C 10.1953125 5.0390625  10.2951388888889 5  10.4166666666667 5  L 11.25 5  C 11.3715277777778 5  11.4713541666667 5.0390625  11.5494791666667 5.1171875  Z M 16.1328125 13.5546875  C 16.7664930555556 12.4696180555556  17.0833333333333 11.2847222222222  17.0833333333333 10  C 17.0833333333333 8.71527777777778  16.7664930555556 7.53038194444444  16.1328125 6.4453125  C 15.4991319444444 5.36024305555555  14.6397569444444 4.50086805555555  13.5546875 3.8671875  C 12.4696180555556 3.23350694444444  11.2847222222222 2.91666666666667  10 2.91666666666667  C 8.71527777777778 2.91666666666667  7.53038194444445 3.23350694444444  6.4453125 3.8671875  C 5.36024305555556 4.50086805555555  4.50086805555556 5.36024305555555  3.8671875 6.4453125  C 3.23350694444444 7.53038194444444  2.91666666666667 8.71527777777778  2.91666666666667 10  C 2.91666666666667 11.2847222222222  3.23350694444444 12.4696180555556  3.8671875 13.5546875  C 4.50086805555556 14.6397569444444  5.36024305555556 15.4991319444444  6.4453125 16.1328125  C 7.53038194444445 16.7664930555556  8.71527777777778 17.0833333333333  10 17.0833333333333  C 11.2847222222222 17.0833333333333  12.4696180555556 16.7664930555556  13.5546875 16.1328125  C 14.6397569444444 15.4991319444444  15.4991319444444 14.6397569444444  16.1328125 13.5546875  Z M 18.6588541666667 4.98046875  C 19.5529513888889 6.51258680555555  20 8.18576388888889  20 10  C 20 11.8142361111111  19.5529513888889 13.4874131944444  18.6588541666667 15.01953125  C 17.7647569444444 16.5516493055556  16.5516493055556 17.7647569444444  15.01953125 18.6588541666667  C 13.4874131944444 19.5529513888889  11.8142361111111 20  10 20  C 8.18576388888889 20  6.51258680555556 19.5529513888889  4.98046875 18.6588541666667  C 3.44835069444444 17.7647569444444  2.23524305555556 16.5516493055556  1.34114583333333 15.01953125  C 0.447048611111111 13.4874131944444  0 11.8142361111111  0 10  C 0 8.18576388888889  0.447048611111111 6.51258680555555  1.34114583333333 4.98046875  C 2.23524305555556 3.44835069444444  3.44835069444444 2.23524305555555  4.98046875 1.34114583333333  C 6.51258680555556 0.447048611111109  8.18576388888889 0  10 0  C 11.8142361111111 0  13.4874131944444 0.447048611111109  15.01953125 1.34114583333333  C 16.5516493055556 2.23524305555555  17.7647569444444 3.44835069444444  18.6588541666667 4.98046875  Z " fill-rule="nonzero" fill="#8c8c8c" stroke="none" transform="matrix(1 0 0 1 310 286 )" />
  </g>
</svg>