<?xml version="1.0" encoding="utf-8"?>
<svg version="1.1" xmlns:xlink="http://www.w3.org/1999/xlink" width="29px" height="50px" xmlns="http://www.w3.org/2000/svg">
  <g transform="matrix(1 0 0 1 -170 -491 )">
    <path d="M 11 29.9386160714286  C 12.0455729166667 30.2176339285714  13.25390625 30.3571428571429  14.5 30.3571428571429  C 15.74609375 30.3571428571429  16.9544270833333 30.2176339285714  18 29.9386160714286  L 18 48.2142857142857  C 18.125 48.6979166666667  17.9456380208333 49.1164434523809  17.5869140625 49.4698660714286  C 17.2281901041667 49.8232886904762  16.8033854166667 50  16.3125 50  L 12.6875 50  C 12.1966145833333 50  11.7718098958333 49.8232886904762  11.4130859375 49.4698660714286  C 11.0543619791667 49.1164434523809  10.875 48.6979166666667  11 48.2142857142857  L 11 29.9386160714286  Z M 4.248046875 4.18526785714286  C 7.080078125 1.39508928571428  10.4973958333333 0  14.5 0  C 18.5026041666667 0  21.919921875 1.39508928571428  24.751953125 4.18526785714286  C 27.583984375 6.97544642857143  29 10.3422619047619  29 14.2857142857143  C 29 18.2291666666667  27.583984375 21.5959821428571  24.751953125 24.3861607142857  C 21.919921875 27.1763392857143  18.5026041666667 28.5714285714286  14.5 28.5714285714286  C 10.4973958333333 28.5714285714286  7.080078125 27.1763392857143  4.248046875 24.3861607142857  C 1.416015625 21.5959821428571  0 18.2291666666667  0 14.2857142857143  C 0 10.3422619047619  1.416015625 6.97544642857143  4.248046875 4.18526785714286  Z M 8.73681640625 8.60770089285715  C 10.3321940104167 7.03590029761904  12.2532552083333 6.25  14.5 6.25  C 14.7643229166667 6.25  14.9814453125 6.16629464285715  15.1513671875 5.99888392857143  C 15.3212890625 5.83147321428572  15.40625 5.61755952380952  15.40625 5.35714285714286  C 15.40625 5.09672619047619  15.3212890625 4.8828125  15.1513671875 4.71540178571428  C 14.9814453125 4.54799107142857  14.7643229166667 4.46428571428572  14.5 4.46428571428572  C 11.7434895833333 4.46428571428572  9.39290364583333 5.42224702380952  7.4482421875 7.33816964285715  C 5.50358072916667 9.25409226190476  4.53125 11.5699404761905  4.53125 14.2857142857143  C 4.53125 14.5461309523809  4.6162109375 14.7600446428571  4.7861328125 14.9274553571429  C 4.9560546875 15.0948660714286  5.17317708333333 15.1785714285714  5.4375 15.1785714285714  C 5.70182291666667 15.1785714285714  5.9189453125 15.0948660714286  6.0888671875 14.9274553571429  C 6.2587890625 14.7600446428571  6.34375 14.5461309523809  6.34375 14.2857142857143  C 6.34375 12.0721726190476  7.14143880208333 10.1795014880952  8.73681640625 8.60770089285715  Z " fill-rule="nonzero" fill="#000000" stroke="none" transform="matrix(1 0 0 1 170 491 )" />
  </g>
</svg>