<?xml version="1.0" encoding="utf-8"?>
<svg version="1.1" xmlns:xlink="http://www.w3.org/1999/xlink" width="12px" height="14px" xmlns="http://www.w3.org/2000/svg">
  <g transform="matrix(1 0 0 1 -36 -206 )">
    <path d="M 0.923076923076923 10.75  L 0.923076923076923 13  L 3 13  L 3 10.75  L 0.923076923076923 10.75  Z M 3.46153846153846 10.75  L 3.46153846153846 13  L 5.76923076923077 13  L 5.76923076923077 10.75  L 3.46153846153846 10.75  Z M 0.923076923076923 7.75  L 0.923076923076923 10.25  L 3 10.25  L 3 7.75  L 0.923076923076923 7.75  Z M 3.46153846153846 7.75  L 3.46153846153846 10.25  L 5.76923076923077 10.25  L 5.76923076923077 7.75  L 3.46153846153846 7.75  Z M 0.923076923076923 5  L 0.923076923076923 7.25  L 3 7.25  L 3 5  L 0.923076923076923 5  Z M 6.23076923076923 10.75  L 6.23076923076923 13  L 8.53846153846154 13  L 8.53846153846154 10.75  L 6.23076923076923 10.75  Z M 3.46153846153846 5  L 3.46153846153846 7.25  L 5.76923076923077 7.25  L 5.76923076923077 5  L 3.46153846153846 5  Z M 9 10.75  L 9 13  L 11.0769230769231 13  L 11.0769230769231 10.75  L 9 10.75  Z M 6.23076923076923 7.75  L 6.23076923076923 10.25  L 8.53846153846154 10.25  L 8.53846153846154 7.75  L 6.23076923076923 7.75  Z M 3.62379807692308 3.67578125  C 3.66947115384615 3.62630208333333  3.69230769230769 3.56770833333333  3.69230769230769 3.5  L 3.69230769230769 1.25  C 3.69230769230769 1.18229166666667  3.66947115384615 1.12369791666667  3.62379807692308 1.07421875  C 3.578125 1.02473958333333  3.52403846153846 1  3.46153846153846 1  L 3 1  C 2.9375 1  2.88341346153846 1.02473958333333  2.83774038461538 1.07421875  C 2.79206730769231 1.12369791666667  2.76923076923077 1.18229166666667  2.76923076923077 1.25  L 2.76923076923077 3.5  C 2.76923076923077 3.56770833333333  2.79206730769231 3.62630208333333  2.83774038461538 3.67578125  C 2.88341346153846 3.72526041666667  2.9375 3.75  3 3.75  L 3.46153846153846 3.75  C 3.52403846153846 3.75  3.578125 3.72526041666667  3.62379807692308 3.67578125  Z M 9 7.75  L 9 10.25  L 11.0769230769231 10.25  L 11.0769230769231 7.75  L 9 7.75  Z M 6.23076923076923 5  L 6.23076923076923 7.25  L 8.53846153846154 7.25  L 8.53846153846154 5  L 6.23076923076923 5  Z M 9 5  L 9 7.25  L 11.0769230769231 7.25  L 11.0769230769231 5  L 9 5  Z M 9.16225961538462 3.67578125  C 9.20793269230769 3.62630208333333  9.23076923076923 3.56770833333333  9.23076923076923 3.5  L 9.23076923076923 1.25  C 9.23076923076923 1.18229166666667  9.20793269230769 1.12369791666667  9.16225961538462 1.07421875  C 9.11658653846154 1.02473958333333  9.0625 1  9 1  L 8.53846153846154 1  C 8.47596153846154 1  8.421875 1.02473958333333  8.37620192307692 1.07421875  C 8.33052884615385 1.12369791666667  8.30769230769231 1.18229166666667  8.30769230769231 1.25  L 8.30769230769231 3.5  C 8.30769230769231 3.56770833333333  8.33052884615385 3.62630208333333  8.37620192307692 3.67578125  C 8.421875 3.72526041666667  8.47596153846154 3.75  8.53846153846154 3.75  L 9 3.75  C 9.0625 3.75  9.11658653846154 3.72526041666667  9.16225961538462 3.67578125  Z M 11.7259615384615 2.296875  C 11.9086538461538 2.49479166666667  12 2.72916666666667  12 3  L 12 13  C 12 13.2708333333333  11.9086538461538 13.5052083333333  11.7259615384615 13.703125  C 11.5432692307692 13.9010416666667  11.3269230769231 14  11.0769230769231 14  L 0.923076923076923 14  C 0.673076923076923 14  0.456730769230769 13.9010416666667  0.274038461538462 13.703125  C 0.0913461538461538 13.5052083333333  0 13.2708333333333  0 13  L 0 3  C 0 2.72916666666667  0.0913461538461538 2.49479166666667  0.274038461538462 2.296875  C 0.456730769230769 2.09895833333333  0.673076923076923 2  0.923076923076923 2  L 1.84615384615385 2  L 1.84615384615385 1.25  C 1.84615384615385 0.906250000000001  1.95913461538462 0.611979166666666  2.18509615384615 0.3671875  C 2.41105769230769 0.122395833333333  2.68269230769231 0  3 0  L 3.46153846153846 0  C 3.77884615384615 0  4.05048076923077 0.122395833333333  4.27644230769231 0.3671875  C 4.50240384615385 0.611979166666666  4.61538461538462 0.906250000000001  4.61538461538462 1.25  L 4.61538461538462 2  L 7.38461538461539 2  L 7.38461538461539 1.25  C 7.38461538461539 0.906250000000001  7.49759615384615 0.611979166666666  7.72355769230769 0.3671875  C 7.94951923076923 0.122395833333333  8.22115384615385 0  8.53846153846154 0  L 9 0  C 9.31730769230769 0  9.58894230769231 0.122395833333333  9.81490384615385 0.3671875  C 10.0408653846154 0.611979166666666  10.1538461538462 0.906250000000001  10.1538461538462 1.25  L 10.1538461538462 2  L 11.0769230769231 2  C 11.3269230769231 2  11.5432692307692 2.09895833333333  11.7259615384615 2.296875  Z " fill-rule="nonzero" fill="#000000" stroke="none" transform="matrix(1 0 0 1 36 206 )" />
  </g>
</svg>