<?xml version="1.0" encoding="utf-8"?>
<svg version="1.1" xmlns:xlink="http://www.w3.org/1999/xlink" width="167px" height="50px" xmlns="http://www.w3.org/2000/svg">
  <g transform="matrix(1 0 0 1 -257 -83 )">
    <path d="M 257.5 112.666149068323  C 257.5 112.666149068323  257.5 88  257.5 88  C 257.5 85.5147186257614  259.514718625761 83.5  262 83.5  C 262 83.5  419 83.5  419 83.5  C 421.485281374239 83.5  423.5 85.5147186257614  423.5 88  C 423.5 88  423.5 112.666149068323  423.5 112.666149068323  C 423.5 115.151430442562  421.485281374239 117.166149068323  419 117.166149068323  C 419 117.166149068323  351.584088104559 117.166149068323  351.584088104559 117.166149068323  C 351.584088104559 117.166149068323  340.927223499129 130.909350951992  340.927223499129 130.909350951992  C 340.927223499129 130.909350951992  331.986900843567 117.166149068323  331.986900843567 117.166149068323  C 331.986900843567 117.166149068323  262 117.166149068323  262 117.166149068323  C 259.514718625761 117.166149068323  257.5 115.151430442562  257.5 112.666149068323  Z " fill-rule="nonzero" fill="#ffffff" stroke="none" />
    <path d="M 257 112.666149068323  C 257 112.666149068323  257 88  257 88  C 257 85.238576250846  259.238576250846 83  262 83  C 262 83  419 83  419 83  C 421.761423749154 83  424 85.238576250846  424 88  C 424 88  424 112.666149068323  424 112.666149068323  C 424 115.427572817477  421.761423749154 117.666149068323  419 117.666149068323  C 419 117.666149068323  351.829084249084 117.666149068323  351.829084249084 117.666149068323  C 351.829084249084 117.666149068323  340.891501831502 131.771367521367  340.891501831502 131.771367521367  C 340.891501831502 131.771367521367  331.715677655678 117.666149068323  331.715677655678 117.666149068323  C 331.715677655678 117.666149068323  262 117.666149068323  262 117.666149068323  C 259.238576250846 117.666149068323  257 115.427572817477  257 112.666149068323  Z M 258 112.666149068323  C 258 114.875288067646  259.790861000677 116.666149068323  262 116.666149068323  C 262 116.666149068323  332.258124031456 116.666149068323  332.258124031456 116.666149068323  C 332.258124031456 116.666149068323  340.962945166756 130.047334382617  340.962945166756 130.047334382617  C 340.962945166756 130.047334382617  351.339091960033 116.666149068323  351.339091960033 116.666149068323  C 351.339091960033 116.666149068323  419 116.666149068323  419 116.666149068323  C 421.209138999323 116.666149068323  423 114.875288067646  423 112.666149068323  C 423 112.666149068323  423 88  423 88  C 423 85.7908610006768  421.209138999323 84  419 84  C 419 84  262 84  262 84  C 259.790861000677 84  258 85.7908610006768  258 88  C 258 88  258 112.666149068323  258 112.666149068323  Z " fill-rule="nonzero" fill="#d7d7d7" stroke="none" />
  </g>
</svg>