<?xml version="1.0" encoding="utf-8"?>
<svg version="1.1" xmlns:xlink="http://www.w3.org/1999/xlink" width="32px" height="24px" xmlns="http://www.w3.org/2000/svg">
  <g transform="matrix(1 0 0 1 -270 -917 )">
    <path d="M 31.421935483871 3.31313131313131  C 31.807311827957 3.69023569023569  32 4.14814814814815  32 4.68686868686869  C 32 5.22558922558922  31.807311827957 5.68350168350168  31.421935483871 6.06060606060606  L 16.4748387096774 20.6868686868687  L 13.6670967741935 23.4343434343434  C 13.2817204301075 23.8114478114478  12.8137634408602 24  12.2632258064516 24  C 11.712688172043 24  11.2447311827957 23.8114478114478  10.8593548387097 23.4343434343434  L 8.05161290322581 20.6868686868687  L 0.578064516129032 13.3737373737374  C 0.192688172043011 12.996632996633  0 12.5387205387205  0 12  C 0 11.4612794612795  0.192688172043011 11.003367003367  0.578064516129032 10.6262626262626  L 3.3858064516129 7.87878787878788  C 3.77118279569893 7.5016835016835  4.23913978494624 7.31313131313131  4.78967741935484 7.31313131313131  C 5.34021505376344 7.31313131313131  5.80817204301075 7.5016835016835  6.19354838709677 7.87878787878788  L 12.2632258064516 13.8383838383838  L 25.8064516129032 0.565656565656566  C 26.1918279569893 0.188552188552188  26.6597849462366 0  27.2103225806452 0  C 27.7608602150538 0  28.2288172043011 0.188552188552188  28.6141935483871 0.565656565656566  L 31.421935483871 3.31313131313131  Z " fill-rule="nonzero" fill="#ffffff" stroke="none" transform="matrix(1 0 0 1 270 917 )" />
  </g>
</svg>