<?xml version="1.0" encoding="utf-8"?>
<svg version="1.1" xmlns:xlink="http://www.w3.org/1999/xlink" width="20px" height="20px" xmlns="http://www.w3.org/2000/svg">
  <g transform="matrix(1 0 0 1 -310 -195 )">
    <path d="M 1.53846153846154 15.3571428571429  L 1.53846153846154 18.5714285714286  L 5 18.5714285714286  L 5 15.3571428571429  L 1.53846153846154 15.3571428571429  Z M 5.76923076923077 15.3571428571429  L 5.76923076923077 18.5714285714286  L 9.61538461538462 18.5714285714286  L 9.61538461538462 15.3571428571429  L 5.76923076923077 15.3571428571429  Z M 1.53846153846154 11.0714285714286  L 1.53846153846154 14.6428571428571  L 5 14.6428571428571  L 5 11.0714285714286  L 1.53846153846154 11.0714285714286  Z M 5.76923076923077 11.0714285714286  L 5.76923076923077 14.6428571428571  L 9.61538461538462 14.6428571428571  L 9.61538461538462 11.0714285714286  L 5.76923076923077 11.0714285714286  Z M 1.53846153846154 7.14285714285714  L 1.53846153846154 10.3571428571429  L 5 10.3571428571429  L 5 7.14285714285714  L 1.53846153846154 7.14285714285714  Z M 10.3846153846154 15.3571428571429  L 10.3846153846154 18.5714285714286  L 14.2307692307692 18.5714285714286  L 14.2307692307692 15.3571428571429  L 10.3846153846154 15.3571428571429  Z M 5.76923076923077 7.14285714285714  L 5.76923076923077 10.3571428571429  L 9.61538461538462 10.3571428571429  L 9.61538461538462 7.14285714285714  L 5.76923076923077 7.14285714285714  Z M 15 15.3571428571429  L 15 18.5714285714286  L 18.4615384615385 18.5714285714286  L 18.4615384615385 15.3571428571429  L 15 15.3571428571429  Z M 10.3846153846154 11.0714285714286  L 10.3846153846154 14.6428571428571  L 14.2307692307692 14.6428571428571  L 14.2307692307692 11.0714285714286  L 10.3846153846154 11.0714285714286  Z M 6.03966346153846 5.25111607142857  C 6.11578525641026 5.18043154761905  6.15384615384615 5.09672619047619  6.15384615384615 5  L 6.15384615384615 1.78571428571429  C 6.15384615384615 1.6889880952381  6.11578525641026 1.60528273809524  6.03966346153846 1.53459821428571  C 5.96354166666667 1.46391369047619  5.87339743589744 1.42857142857143  5.76923076923077 1.42857142857143  L 5 1.42857142857143  C 4.89583333333333 1.42857142857143  4.8056891025641 1.46391369047619  4.72956730769231 1.53459821428571  C 4.65344551282051 1.60528273809524  4.61538461538462 1.6889880952381  4.61538461538462 1.78571428571429  L 4.61538461538462 5  C 4.61538461538462 5.09672619047619  4.65344551282051 5.18043154761905  4.72956730769231 5.25111607142857  C 4.8056891025641 5.32180059523809  4.89583333333333 5.35714285714286  5 5.35714285714286  L 5.76923076923077 5.35714285714286  C 5.87339743589744 5.35714285714286  5.96354166666667 5.32180059523809  6.03966346153846 5.25111607142857  Z M 15 11.0714285714286  L 15 14.6428571428571  L 18.4615384615385 14.6428571428571  L 18.4615384615385 11.0714285714286  L 15 11.0714285714286  Z M 10.3846153846154 7.14285714285714  L 10.3846153846154 10.3571428571429  L 14.2307692307692 10.3571428571429  L 14.2307692307692 7.14285714285714  L 10.3846153846154 7.14285714285714  Z M 15 7.14285714285714  L 15 10.3571428571429  L 18.4615384615385 10.3571428571429  L 18.4615384615385 7.14285714285714  L 15 7.14285714285714  Z M 15.2704326923077 5.25111607142857  C 15.3465544871795 5.18043154761905  15.3846153846154 5.09672619047619  15.3846153846154 5  L 15.3846153846154 1.78571428571429  C 15.3846153846154 1.6889880952381  15.3465544871795 1.60528273809524  15.2704326923077 1.53459821428571  C 15.1943108974359 1.46391369047619  15.1041666666667 1.42857142857143  15 1.42857142857143  L 14.2307692307692 1.42857142857143  C 14.1266025641026 1.42857142857143  14.0364583333333 1.46391369047619  13.9603365384615 1.53459821428571  C 13.8842147435897 1.60528273809524  13.8461538461538 1.6889880952381  13.8461538461538 1.78571428571429  L 13.8461538461538 5  C 13.8461538461538 5.09672619047619  13.8842147435897 5.18043154761905  13.9603365384615 5.25111607142857  C 14.0364583333333 5.32180059523809  14.1266025641026 5.35714285714286  14.2307692307692 5.35714285714286  L 15 5.35714285714286  C 15.1041666666667 5.35714285714286  15.1943108974359 5.32180059523809  15.2704326923077 5.25111607142857  Z M 19.5432692307692 3.28125  C 19.8477564102564 3.5639880952381  20 3.89880952380952  20 4.28571428571429  L 20 18.5714285714286  C 20 18.9583333333333  19.8477564102564 19.2931547619048  19.5432692307692 19.5758928571429  C 19.2387820512821 19.858630952381  18.8782051282051 20  18.4615384615385 20  L 1.53846153846154 20  C 1.12179487179487 20  0.761217948717949 19.858630952381  0.456730769230769 19.5758928571429  C 0.15224358974359 19.2931547619048  0 18.9583333333333  0 18.5714285714286  L 0 4.28571428571429  C 0 3.89880952380952  0.15224358974359 3.5639880952381  0.456730769230769 3.28125  C 0.761217948717949 2.9985119047619  1.12179487179487 2.85714285714286  1.53846153846154 2.85714285714286  L 3.07692307692308 2.85714285714286  L 3.07692307692308 1.78571428571429  C 3.07692307692308 1.29464285714286  3.26522435897436 0.874255952380951  3.64182692307692 0.524553571428572  C 4.01842948717949 0.174851190476191  4.47115384615385 0  5 0  L 5.76923076923077 0  C 6.29807692307692 0  6.75080128205128 0.174851190476191  7.12740384615385 0.524553571428572  C 7.50400641025641 0.874255952380951  7.69230769230769 1.29464285714286  7.69230769230769 1.78571428571429  L 7.69230769230769 2.85714285714286  L 12.3076923076923 2.85714285714286  L 12.3076923076923 1.78571428571429  C 12.3076923076923 1.29464285714286  12.4959935897436 0.874255952380951  12.8725961538462 0.524553571428572  C 13.2491987179487 0.174851190476191  13.7019230769231 0  14.2307692307692 0  L 15 0  C 15.5288461538462 0  15.9815705128205 0.174851190476191  16.3581730769231 0.524553571428572  C 16.7347756410256 0.874255952380951  16.9230769230769 1.29464285714286  16.9230769230769 1.78571428571429  L 16.9230769230769 2.85714285714286  L 18.4615384615385 2.85714285714286  C 18.8782051282051 2.85714285714286  19.2387820512821 2.9985119047619  19.5432692307692 3.28125  Z " fill-rule="nonzero" fill="#8c8c8c" stroke="none" transform="matrix(1 0 0 1 310 195 )" />
  </g>
</svg>