<?xml version="1.0" encoding="utf-8"?>
<svg version="1.1" xmlns:xlink="http://www.w3.org/1999/xlink" width="36px" height="19px" xmlns="http://www.w3.org/2000/svg">
  <g transform="matrix(1 0 0 1 -71 -64 )">
    <path d="M 35.6392785571142 1.95876288659794  C 35.8797595190381 2.17640320733104  36 2.42668957617411  36 2.70962199312715  C 36 2.99255441008018  35.8797595190381 3.24284077892325  35.6392785571142 3.46048109965636  L 18.8296593186373 18.6735395189003  C 18.5891783567134 18.8911798396334  18.312625250501 19  18 19  C 17.687374749499 19  17.4108216432866 18.8911798396334  17.1703406813627 18.6735395189003  L 0.360721442885772 3.46048109965636  C 0.120240480961924 3.24284077892325  0 2.99255441008018  0 2.70962199312715  C 0 2.42668957617411  0.120240480961924 2.17640320733104  0.360721442885772 1.95876288659794  L 2.16432865731463 0.326460481099657  C 2.40480961923848 0.10882016036655  2.6813627254509 0  2.9939879759519 0  C 3.30661322645291 0  3.58316633266533 0.10882016036655  3.82364729458918 0.326460481099657  L 18 13.1563573883162  L 32.1763527054108 0.326460481099657  C 32.4168336673347 0.10882016036655  32.6933867735471 0  33.0060120240481 0  C 33.3186372745491 0  33.5951903807615 0.10882016036655  33.8356713426854 0.326460481099657  L 35.6392785571142 1.95876288659794  Z " fill-rule="nonzero" fill="#797979" stroke="none" transform="matrix(1 0 0 1 71 64 )" />
  </g>
</svg>