<?xml version="1.0" encoding="utf-8"?>
<svg version="1.1" xmlns:xlink="http://www.w3.org/1999/xlink" width="36px" height="36px" xmlns="http://www.w3.org/2000/svg">
  <g transform="matrix(1 0 0 1 0 -1 )">
    <path d="M 11.0089285714286 1.42633928571429  C 13.2321428571429 0.475446428571428  15.5625 0  18 0  C 20.4375 0  22.7678571428571 0.475446428571428  24.9910714285714 1.42633928571429  C 27.2142857142857 2.37723214285714  29.1294642857143 3.65625  30.7366071428571 5.26339285714286  C 32.34375 6.87053571428572  33.6227678571429 8.78571428571428  34.5736607142857 11.0089285714286  C 35.5245535714286 13.2321428571429  36 15.5625  36 18  C 36 20.4241071428571  35.5279017857143 22.7477678571429  34.5837053571429 24.9709821428571  C 33.6395089285714 27.1941964285714  32.3638392857143 29.109375  30.7566964285714 30.7165178571429  C 29.1495535714286 32.3236607142857  27.234375 33.6060267857143  25.0111607142857 34.5636160714286  C 22.7879464285714 35.5212053571429  20.4508928571429 36  18 36  C 15.5491071428571 36  13.2120535714286 35.5245535714286  10.9888392857143 34.5736607142857  C 8.765625 33.6227678571429  6.85379464285714 32.3404017857143  5.25334821428571 30.7265625  C 3.65290178571429 29.1127232142857  2.37723214285714 27.1975446428571  1.42633928571429 24.9810267857143  C 0.475446428571428 22.7645089285714  0 20.4375  0 18  C 0 15.5625  0.475446428571428 13.2321428571429  1.42633928571429 11.0089285714286  C 2.37723214285714 8.78571428571428  3.65625 6.87053571428572  5.26339285714286 5.26339285714286  C 6.87053571428571 3.65625  8.78571428571429 2.37723214285714  11.0089285714286 1.42633928571429  Z M 24.2879464285714 20.5714285714286  C 27.5022321428571 20.5714285714286  29.5513392857143 22.7611607142857  30.4352678571429 27.140625  C 32.4308035714286 24.3950892857143  33.4285714285714 21.3482142857143  33.4285714285714 18  C 33.4285714285714 15.9107142857143  33.0200892857143 13.9151785714286  32.203125 12.0133928571429  C 31.3861607142857 10.1116071428571  30.2879464285714 8.47098214285714  28.9084821428571 7.09151785714286  C 27.5290178571429 5.71205357142857  25.8883928571429 4.61383928571428  23.9866071428571 3.796875  C 22.0848214285714 2.97991071428571  20.0892857142857 2.57142857142857  18 2.57142857142857  C 15.9107142857143 2.57142857142857  13.9151785714286 2.97991071428571  12.0133928571429 3.796875  C 10.1116071428571 4.61383928571428  8.47098214285714 5.71205357142857  7.09151785714286 7.09151785714286  C 5.71205357142857 8.47098214285714  4.61383928571429 10.1116071428571  3.796875 12.0133928571429  C 2.97991071428571 13.9151785714286  2.57142857142857 15.9107142857143  2.57142857142857 18  C 2.57142857142857 21.3482142857143  3.56919642857143 24.3950892857143  5.56473214285714 27.140625  C 6.44866071428571 22.7611607142857  8.49776785714286 20.5714285714286  11.7120535714286 20.5714285714286  C 13.4665178571429 22.2857142857143  15.5625 23.1428571428571  18 23.1428571428571  C 20.4375 23.1428571428571  22.5334821428571 22.2857142857143  24.2879464285714 20.5714285714286  Z M 23.4542410714286 19.5970982142857  C 24.9609375 18.0904017857143  25.7142857142857 16.2723214285714  25.7142857142857 14.1428571428571  C 25.7142857142857 12.0133928571429  24.9609375 10.1953125  23.4542410714286 8.68861607142857  C 21.9475446428571 7.18191964285714  20.1294642857143 6.42857142857143  18 6.42857142857143  C 15.8705357142857 6.42857142857143  14.0524553571429 7.18191964285714  12.5457589285714 8.68861607142857  C 11.0390625 10.1953125  10.2857142857143 12.0133928571429  10.2857142857143 14.1428571428571  C 10.2857142857143 16.2723214285714  11.0390625 18.0904017857143  12.5457589285714 19.5970982142857  C 14.0524553571429 21.1037946428571  15.8705357142857 21.8571428571429  18 21.8571428571429  C 20.1294642857143 21.8571428571429  21.9475446428571 21.1037946428571  23.4542410714286 19.5970982142857  Z " fill-rule="nonzero" fill="#000000" stroke="none" transform="matrix(1 0 0 1 0 1 )" />
  </g>
</svg>