<?xml version="1.0" encoding="utf-8"?>
<svg version="1.1" xmlns:xlink="http://www.w3.org/1999/xlink" width="28px" height="21px" xmlns="http://www.w3.org/2000/svg">
  <g transform="matrix(1 0 0 1 -40 -9 )">
    <path d="M 27.4941935483871 2.8989898989899  C 27.8313978494624 3.22895622895623  28 3.62962962962963  28 4.1010101010101  C 28 4.57239057239057  27.8313978494624 4.97306397306397  27.4941935483871 5.3030303030303  L 14.4154838709677 18.1010101010101  L 11.9587096774194 20.5050505050505  C 11.6215053763441 20.8350168350168  11.2120430107527 21  10.7303225806452 21  C 10.2486021505376 21  9.83913978494624 20.8350168350168  9.50193548387097 20.5050505050505  L 7.04516129032258 18.1010101010101  L 0.505806451612903 11.7020202020202  C 0.168602150537635 11.3720538720539  0 10.9713804713805  0 10.5  C 0 10.0286195286195  0.168602150537635 9.62794612794613  0.505806451612903 9.2979797979798  L 2.96258064516129 6.89393939393939  C 3.29978494623656 6.56397306397306  3.70924731182796 6.3989898989899  4.19096774193548 6.3989898989899  C 4.67268817204301 6.3989898989899  5.08215053763441 6.56397306397306  5.41935483870968 6.89393939393939  L 10.7303225806452 12.1085858585859  L 22.5806451612903 0.494949494949495  C 22.9178494623656 0.164983164983164  23.327311827957 0  23.8090322580645 0  C 24.290752688172 0  24.7002150537634 0.164983164983164  25.0374193548387 0.494949494949495  L 27.4941935483871 2.8989898989899  Z " fill-rule="nonzero" fill="#ffffff" stroke="none" transform="matrix(1 0 0 1 40 9 )" />
  </g>
</svg>