<?xml version="1.0" encoding="utf-8"?>
<svg version="1.1" xmlns:xlink="http://www.w3.org/1999/xlink" width="22px" height="21px" xmlns="http://www.w3.org/2000/svg">
  <g transform="matrix(1 0 0 1 -275 -655 )">
    <path d="M 14.2942708333333 13.42578125  C 15.1727430555556 12.6419270833333  16.2135416666667 12.25  17.4166666666667 12.25  C 18.6866319444444 12.25  19.7680121527778 12.6761067708333  20.6608072916667 13.5283203125  C 21.5536024305556 14.3805338541667  22 15.4127604166667  22 16.625  C 22 17.8372395833333  21.5536024305556 18.8694661458333  20.6608072916667 19.7216796875  C 19.7680121527778 20.5738932291667  18.6866319444444 21  17.4166666666667 21  C 16.1467013888889 21  15.0653211805556 20.5738932291667  14.1725260416667 19.7216796875  C 13.2797309027778 18.8694661458333  12.8333333333333 17.8372395833333  12.8333333333333 16.625  C 12.8333333333333 16.515625  12.8428819444444 16.3606770833333  12.8619791666667 16.16015625  L 7.70572916666667 13.69921875  C 6.82725694444444 14.4830729166667  5.78645833333333 14.875  4.58333333333333 14.875  C 3.31336805555556 14.875  2.23198784722222 14.4488932291667  1.33919270833333 13.5966796875  C 0.446397569444444 12.7444661458333  0 11.7122395833333  0 10.5  C 0 9.28776041666666  0.446397569444444 8.25553385416667  1.33919270833333 7.4033203125  C 2.23198784722222 6.55110677083333  3.31336805555556 6.125  4.58333333333333 6.125  C 5.78645833333333 6.125  6.82725694444444 6.51692708333333  7.70572916666667 7.30078125  L 12.8619791666667 4.83984375  C 12.8428819444444 4.63932291666667  12.8333333333333 4.484375  12.8333333333333 4.375  C 12.8333333333333 3.16276041666667  13.2797309027778 2.13053385416666  14.1725260416667 1.2783203125  C 15.0653211805556 0.426106770833332  16.1467013888889 0  17.4166666666667 0  C 18.6866319444444 0  19.7680121527778 0.426106770833332  20.6608072916667 1.2783203125  C 21.5536024305556 2.13053385416666  22 3.16276041666667  22 4.375  C 22 5.58723958333333  21.5536024305556 6.61946614583333  20.6608072916667 7.4716796875  C 19.7680121527778 8.32389322916667  18.6866319444444 8.75  17.4166666666667 8.75  C 16.2135416666667 8.75  15.1727430555556 8.35807291666667  14.2942708333333 7.57421875  L 9.13802083333333 10.03515625  C 9.15711805555556 10.2356770833333  9.16666666666667 10.390625  9.16666666666667 10.5  C 9.16666666666667 10.609375  9.15711805555556 10.7643229166667  9.13802083333333 10.96484375  L 14.2942708333333 13.42578125  Z " fill-rule="nonzero" fill="#7f7f7f" stroke="none" transform="matrix(1 0 0 1 275 655 )" />
  </g>
</svg>