<?xml version="1.0" encoding="utf-8"?>
<svg version="1.1" xmlns:xlink="http://www.w3.org/1999/xlink" width="64px" height="64px" xmlns="http://www.w3.org/2000/svg">
  <g transform="matrix(1 0 0 1 -258 -165 )">
    <path d="M 25.6785714285714 41  L 21.75 29.1428571428571  L 32 21.7142857142857  L 42.25 29.1428571428571  L 38.3571428571429 41  L 25.6785714285714 41  Z M 19.5714285714286 2.53571428571428  C 23.5238095238095 0.845238095238095  27.6666666666667 0  32 0  C 36.3333333333333 0  40.4761904761905 0.845238095238095  44.4285714285714 2.53571428571428  C 48.3809523809524 4.22619047619047  51.7857142857143 6.5  54.6428571428571 9.35714285714285  C 57.5 12.2142857142857  59.7738095238095 15.6190476190476  61.4642857142857 19.5714285714286  C 63.1547619047619 23.5238095238095  64 27.6666666666667  64 32  C 64 36.3333333333333  63.1547619047619 40.4761904761905  61.4642857142857 44.4285714285714  C 59.7738095238095 48.3809523809524  57.5 51.7857142857143  54.6428571428571 54.6428571428571  C 51.7857142857143 57.5  48.3809523809524 59.7738095238095  44.4285714285714 61.4642857142857  C 40.4761904761905 63.1547619047619  36.3333333333333 64  32 64  C 27.6666666666667 64  23.5238095238095 63.1547619047619  19.5714285714286 61.4642857142857  C 15.6190476190476 59.7738095238095  12.2142857142857 57.5  9.35714285714286 54.6428571428571  C 6.5 51.7857142857143  4.22619047619048 48.3809523809524  2.53571428571429 44.4285714285714  C 0.845238095238095 40.4761904761905  0 36.3333333333333  0 32  C 0 27.6666666666667  0.845238095238095 23.5238095238095  2.53571428571429 19.5714285714286  C 4.22619047619048 15.6190476190476  6.5 12.2142857142857  9.35714285714286 9.35714285714285  C 12.2142857142857 6.5  15.6190476190476 4.22619047619047  19.5714285714286 2.53571428571428  Z M 53.0357142857143 43.5  L 54.1071428571429 48.2142857142857  C 57.6547619047619 43.3809523809524  59.4285714285714 37.9761904761905  59.4285714285714 32  L 59.4285714285714 31.8928571428571  L 55.7857142857143 35.0714285714286  L 47.2142857142857 27.0714285714286  L 49.4642857142857 15.5357142857143  L 54.25 15.9642857142857  C 50.6785714285714 11.0595238095238  46.0476190476191 7.70238095238095  40.3571428571429 5.89285714285715  L 42.25 10.3214285714286  L 32 16  L 21.75 10.3214285714286  L 23.6428571428571 5.89285714285715  C 17.952380952381 7.70238095238095  13.3214285714286 11.0595238095238  9.75 15.9642857142857  L 14.5714285714286 15.5357142857143  L 16.7857142857143 27.0714285714286  L 8.21428571428571 35.0714285714286  L 4.57142857142857 31.8928571428571  L 4.57142857142857 32  C 4.57142857142857 37.9761904761905  6.3452380952381 43.3809523809524  9.89285714285714 48.2142857142857  L 10.9642857142857 43.5  L 22.6071428571429 44.9285714285714  L 27.5714285714286 55.5714285714286  L 23.4285714285714 58.0357142857143  C 26.2142857142857 58.9642857142857  29.0714285714286 59.4285714285714  32 59.4285714285714  C 34.9285714285714 59.4285714285714  37.7857142857143 58.9642857142857  40.5714285714286 58.0357142857143  L 36.4285714285714 55.5714285714286  L 41.3928571428571 44.9285714285714  L 53.0357142857143 43.5  Z " fill-rule="nonzero" fill="#333333" stroke="none" transform="matrix(1 0 0 1 258 165 )" />
  </g>
</svg>