<?xml version="1.0" encoding="utf-8"?>
<svg version="1.1" xmlns:xlink="http://www.w3.org/1999/xlink" width="7px" height="11px" xmlns="http://www.w3.org/2000/svg">
  <g transform="matrix(1 0 0 1 -9 -14 )">
    <path d="M 6.87972508591065 0.661322645290581  C 6.95990836197022 0.734802939211756  7 0.819305277221107  7 0.914829659318638  C 7 1.01035404141617  6.95990836197022 1.09485637942552  6.87972508591065 1.16833667334669  L 2.15292096219931 5.5  L 6.87972508591065 9.83166332665331  C 6.95990836197022 9.90514362057448  7 9.98964595858383  7 10.0851703406814  C 7 10.1806947227789  6.95990836197022 10.2651970607882  6.87972508591065 10.3386773547094  L 6.27835051546392 10.8897795591182  C 6.19816723940435 10.9632598530394  6.10595647193585 11  6.00171821305842 11  C 5.89747995418099 11  5.80526918671249 10.9632598530394  5.72508591065292 10.8897795591182  L 0.120274914089347 5.75350701402806  C 0.0400916380297824 5.68002672010688  0 5.59552438209753  0 5.5  C 0 5.40447561790247  0.0400916380297824 5.31997327989312  0.120274914089347 5.24649298597194  L 5.72508591065292 0.110220440881764  C 5.80526918671249 0.0367401469605875  5.89747995418099 0  6.00171821305842 0  C 6.10595647193585 0  6.19816723940435 0.0367401469605875  6.27835051546392 0.110220440881764  L 6.87972508591065 0.661322645290581  Z " fill-rule="nonzero" fill="#000000" stroke="none" transform="matrix(1 0 0 1 9 14 )" />
  </g>
</svg>