<?xml version="1.0" encoding="utf-8"?>
<svg version="1.1" xmlns:xlink="http://www.w3.org/1999/xlink" width="7px" height="10px" xmlns="http://www.w3.org/2000/svg">
  <g transform="matrix(1 0 0 1 -12 -14 )">
    <path d="M 6.87972508591065 0.601202404809619  C 6.95990836197022 0.668002672010687  7 0.744822979291916  7 0.831663326653307  C 7 0.918503674014696  6.95990836197022 0.995323981295925  6.87972508591065 1.06212424849699  L 2.15292096219931 5  L 6.87972508591065 8.93787575150301  C 6.95990836197022 9.00467601870407  7 9.0814963259853  7 9.16833667334669  C 7 9.25517702070808  6.95990836197022 9.33199732798931  6.87972508591065 9.39879759519038  L 6.27835051546392 9.8997995991984  C 6.19816723940435 9.96659986639947  6.10595647193585 10  6.00171821305842 10  C 5.89747995418099 10  5.80526918671249 9.96659986639947  5.72508591065292 9.8997995991984  L 0.120274914089347 5.23046092184369  C 0.0400916380297824 5.16366065464262  0 5.08684034736139  0 5  C 0 4.91315965263861  0.0400916380297824 4.83633934535738  0.120274914089347 4.76953907815631  L 5.72508591065292 0.100200400801603  C 5.80526918671249 0.0334001336005341  5.89747995418099 0  6.00171821305842 0  C 6.10595647193585 0  6.19816723940435 0.0334001336005341  6.27835051546392 0.100200400801603  L 6.87972508591065 0.601202404809619  Z " fill-rule="nonzero" fill="#8c8c8c" stroke="none" transform="matrix(1 0 0 1 12 14 )" />
  </g>
</svg>