<?xml version="1.0" encoding="utf-8"?>
<svg version="1.1" xmlns:xlink="http://www.w3.org/1999/xlink" width="36px" height="19px" xmlns="http://www.w3.org/2000/svg">
  <g transform="matrix(1 0 0 1 -71 -10 )">
    <path d="M 35.6392785571142 15.5395189003436  C 35.8797595190381 15.7571592210767  36 16.0074455899198  36 16.2903780068729  C 36 16.5733104238259  35.8797595190381 16.823596792669  35.6392785571142 17.0412371134021  L 33.8356713426854 18.6735395189003  C 33.5951903807615 18.8911798396334  33.3186372745491 19  33.0060120240481 19  C 32.6933867735471 19  32.4168336673347 18.8911798396334  32.1763527054108 18.6735395189003  L 18 5.84364261168385  L 3.82364729458918 18.6735395189003  C 3.58316633266533 18.8911798396334  3.30661322645291 19  2.9939879759519 19  C 2.6813627254509 19  2.40480961923848 18.8911798396334  2.16432865731463 18.6735395189003  L 0.360721442885772 17.0412371134021  C 0.120240480961924 16.823596792669  0 16.5733104238259  0 16.2903780068729  C 0 16.0074455899198  0.120240480961924 15.7571592210767  0.360721442885772 15.5395189003436  L 17.1703406813627 0.326460481099657  C 17.4108216432866 0.10882016036655  17.687374749499 0  18 0  C 18.312625250501 0  18.5891783567134 0.10882016036655  18.8296593186373 0.326460481099657  L 35.6392785571142 15.5395189003436  Z " fill-rule="nonzero" fill="#797979" stroke="none" transform="matrix(1 0 0 1 71 10 )" />
  </g>
</svg>