<?xml version="1.0" encoding="utf-8"?>
<svg version="1.1" xmlns:xlink="http://www.w3.org/1999/xlink" width="173px" height="50px" xmlns="http://www.w3.org/2000/svg">
  <g transform="matrix(1 0 0 1 -14 -83 )">
    <path d="M 14.5 112.666149068323  C 14.5 112.666149068323  14.5 88  14.5 88  C 14.5 85.5147186257614  16.5147186257614 83.5  19 83.5  C 19 83.5  182 83.5  182 83.5  C 184.485281374239 83.5  186.5 85.5147186257614  186.5 88  C 186.5 88  186.5 112.666149068323  186.5 112.666149068323  C 186.5 115.151430442562  184.485281374239 117.166149068323  182 117.166149068323  C 182 117.166149068323  111.996420465574 117.166149068323  111.996420465574 117.166149068323  C 111.996420465574 117.166149068323  100.940860754342 130.929037225529  100.940860754342 130.929037225529  C 100.940860754342 130.929037225529  91.6660623388781 117.166149068323  91.6660623388781 117.166149068323  C 91.6660623388781 117.166149068323  19 117.166149068323  19 117.166149068323  C 16.5147186257614 117.166149068323  14.5 115.151430442562  14.5 112.666149068323  Z " fill-rule="nonzero" fill="#ffffff" stroke="none" />
    <path d="M 14 112.666149068323  C 14 112.666149068323  14 88  14 88  C 14 85.238576250846  16.238576250846 83  19 83  C 19 83  182 83  182 83  C 184.761423749154 83  187 85.238576250846  187 88  C 187 88  187 112.666149068323  187 112.666149068323  C 187 115.427572817477  184.761423749154 117.666149068323  182 117.666149068323  C 182 117.666149068323  112.236117216117 117.666149068323  112.236117216117 117.666149068323  C 112.236117216117 117.666149068323  100.905567765568 131.771367521367  100.905567765568 131.771367521367  C 100.905567765568 131.771367521367  91.4000732600733 117.666149068323  91.4000732600733 117.666149068323  C 91.4000732600733 117.666149068323  19 117.666149068323  19 117.666149068323  C 16.238576250846 117.666149068323  14 115.427572817477  14 112.666149068323  Z M 15 112.666149068323  C 15 114.875288067646  16.7908610006768 116.666149068323  19 116.666149068323  C 19 116.666149068323  91.9320514176832 116.666149068323  91.9320514176832 116.666149068323  C 91.9320514176832 116.666149068323  100.976153743116 130.086706929691  100.976153743116 130.086706929691  C 100.976153743116 130.086706929691  111.756723715031 116.666149068323  111.756723715031 116.666149068323  C 111.756723715031 116.666149068323  182 116.666149068323  182 116.666149068323  C 184.209138999323 116.666149068323  186 114.875288067646  186 112.666149068323  C 186 112.666149068323  186 88  186 88  C 186 85.7908610006768  184.209138999323 84  182 84  C 182 84  19 84  19 84  C 16.7908610006768 84  15 85.7908610006768  15 88  C 15 88  15 112.666149068323  15 112.666149068323  Z " fill-rule="nonzero" fill="#d7d7d7" stroke="none" />
  </g>
</svg>