<?xml version="1.0" encoding="utf-8"?>
<svg version="1.1" xmlns:xlink="http://www.w3.org/1999/xlink" width="10px" height="15px" xmlns="http://www.w3.org/2000/svg">
  <g transform="matrix(1 0 0 1 -37 -181 )">
    <path d="M 6.767578125 6.767578125  C 7.255859375 6.279296875  7.5 5.69010416666667  7.5 5  C 7.5 4.30989583333333  7.255859375 3.720703125  6.767578125 3.232421875  C 6.279296875 2.744140625  5.69010416666667 2.5  5 2.5  C 4.30989583333333 2.5  3.720703125 2.744140625  3.232421875 3.232421875  C 2.744140625 3.720703125  2.5 4.30989583333333  2.5 5  C 2.5 5.69010416666667  2.744140625 6.279296875  3.232421875 6.767578125  C 3.720703125 7.255859375  4.30989583333333 7.5  5 7.5  C 5.69010416666667 7.5  6.279296875 7.255859375  6.767578125 6.767578125  Z M 8.53515625 1.46484375  C 9.51171875 2.44140625  10 3.61979166666666  10 5  C 10 5.70963541666667  9.892578125 6.29231770833333  9.677734375 6.748046875  L 6.123046875 14.306640625  C 6.01888020833333 14.521484375  5.8642578125 14.6907552083333  5.6591796875 14.814453125  C 5.4541015625 14.9381510416667  5.234375 15  5 15  C 4.765625 15  4.5458984375 14.9381510416667  4.3408203125 14.814453125  C 4.1357421875 14.6907552083333  3.984375 14.521484375  3.88671875 14.306640625  L 0.322265625 6.748046875  C 0.107421875 6.29231770833333  0 5.70963541666667  0 5  C 0 3.61979166666666  0.48828125 2.44140625  1.46484375 1.46484375  C 2.44140625 0.488281250000001  3.61979166666667 0  5 0  C 6.38020833333333 0  7.55859375 0.488281250000001  8.53515625 1.46484375  Z " fill-rule="nonzero" fill="#000000" stroke="none" transform="matrix(1 0 0 1 37 181 )" />
  </g>
</svg>